<svg xmlns="http://www.w3.org/2000/svg" xmlns:xlink="http://www.w3.org/1999/xlink" width="1920" zoomAndPan="magnify" viewBox="0 0 1440 809.999993" height="1080" preserveAspectRatio="xMidYMid meet" version="1.0"><defs><g/><clipPath id="e62d5d72a5"><path d="M 570 375 L 870 375 L 870 435 L 570 435 Z M 570 375 " clip-rule="nonzero"/></clipPath></defs><path fill="#ffffff" d="M 570 375 L 870 375 L 870 435 L 570 435 L 570 375 " fill-opacity="1" fill-rule="nonzero"/><g clip-path="url(#e62d5d72a5)"><path stroke-linecap="butt" transform="matrix(0.75, 0, 0, 0.75, 569.999978, 375.000001)" fill="none" stroke-linejoin="miter" d="M 0.0000299383 -0.00000151235 L 400.000076 -0.00000151235 L 400.000076 80.000008 L 0.0000299383 80.000008 L 0.0000299383 -0.00000151235 " stroke="#4a886c" stroke-width="8" stroke-opacity="1" stroke-miterlimit="4"/></g><g fill="#4a886c" fill-opacity="1"><g transform="translate(583.168921, 415.349999)"><g><path d="M 18.0625 -20.078125 L 7.09375 0 L 4.21875 0 L 1.828125 -20.078125 L 4.0625 -20.078125 L 6.109375 -2.140625 L 15.75 -20.078125 Z M 18.0625 -20.078125 "/></g></g><g transform="translate(600.364721, 415.349999)"><g><path d="M -0.71875 -3.875 C -0.539062 -4.78125 -0.160156 -5.535156 0.421875 -6.140625 C 1.003906 -6.753906 1.695312 -7.238281 2.5 -7.59375 C 3.3125 -7.945312 4.207031 -8.203125 5.1875 -8.359375 C 6.175781 -8.515625 7.164062 -8.59375 8.15625 -8.59375 C 8.53125 -8.59375 8.863281 -8.585938 9.15625 -8.578125 C 9.457031 -8.566406 9.742188 -8.550781 10.015625 -8.53125 C 10.285156 -8.507812 10.550781 -8.484375 10.8125 -8.453125 C 11.082031 -8.421875 11.382812 -8.390625 11.71875 -8.359375 L 11.9375 -9.375 C 12.09375 -10.070312 12.0625 -10.644531 11.84375 -11.09375 C 11.632812 -11.550781 11.332031 -11.910156 10.9375 -12.171875 C 10.550781 -12.429688 10.128906 -12.613281 9.671875 -12.71875 C 9.210938 -12.832031 8.8125 -12.890625 8.46875 -12.890625 C 7.394531 -12.890625 6.378906 -12.742188 5.421875 -12.453125 C 4.472656 -12.171875 3.554688 -11.789062 2.671875 -11.3125 L 2.046875 -12.890625 C 3.023438 -13.410156 4.085938 -13.835938 5.234375 -14.171875 C 6.390625 -14.503906 7.609375 -14.671875 8.890625 -14.671875 C 9.660156 -14.671875 10.40625 -14.570312 11.125 -14.375 C 11.84375 -14.175781 12.453125 -13.867188 12.953125 -13.453125 C 13.453125 -13.035156 13.804688 -12.488281 14.015625 -11.8125 C 14.222656 -11.132812 14.234375 -10.320312 14.046875 -9.375 L 12.0625 0 L 9.953125 0 L 10.453125 -2.40625 C 9.972656 -1.9375 9.460938 -1.523438 8.921875 -1.171875 C 8.390625 -0.828125 7.84375 -0.546875 7.28125 -0.328125 C 6.726562 -0.109375 6.175781 0.0546875 5.625 0.171875 C 5.082031 0.296875 4.582031 0.359375 4.125 0.359375 C 2.238281 0.359375 0.882812 -0.00390625 0.0625 -0.734375 C -0.757812 -1.460938 -1.019531 -2.507812 -0.71875 -3.875 Z M 4.5 -1.453125 C 5.382812 -1.453125 6.207031 -1.582031 6.96875 -1.84375 C 7.738281 -2.101562 8.40625 -2.425781 8.96875 -2.8125 C 9.539062 -3.207031 10.007812 -3.625 10.375 -4.0625 C 10.75 -4.5 10.976562 -4.898438 11.0625 -5.265625 L 11.328125 -6.609375 C 10.671875 -6.710938 10.023438 -6.769531 9.390625 -6.78125 C 8.753906 -6.789062 8.207031 -6.796875 7.75 -6.796875 C 6.988281 -6.796875 6.242188 -6.742188 5.515625 -6.640625 C 4.796875 -6.535156 4.148438 -6.367188 3.578125 -6.140625 C 3.015625 -5.910156 2.53125 -5.609375 2.125 -5.234375 C 1.726562 -4.867188 1.484375 -4.414062 1.390625 -3.875 C 1.242188 -3.269531 1.410156 -2.710938 1.890625 -2.203125 C 2.367188 -1.703125 3.238281 -1.453125 4.5 -1.453125 Z M 4.5 -1.453125 "/></g></g><g transform="translate(617.560521, 415.349999)"><g><path d="M 9.953125 0 L 1.359375 0 L 1.734375 -1.796875 L 4.984375 -1.796875 L 8.46875 -18.265625 L 5.234375 -18.265625 L 5.609375 -20.078125 L 10.96875 -20.078125 L 7.09375 -1.796875 L 10.34375 -1.796875 Z M 9.953125 0 "/></g></g><g transform="translate(634.756321, 415.349999)"><g><path d="M 1.953125 -6.421875 C 1.785156 -4.910156 2.078125 -3.703125 2.828125 -2.796875 C 3.585938 -1.898438 4.738281 -1.453125 6.28125 -1.453125 C 7.34375 -1.453125 8.335938 -1.671875 9.265625 -2.109375 C 10.203125 -2.546875 10.957031 -3.09375 11.53125 -3.75 L 12.78125 -2.734375 C 11.851562 -1.734375 10.832031 -0.96875 9.71875 -0.4375 C 8.613281 0.09375 7.335938 0.359375 5.890625 0.359375 C 4.773438 0.359375 3.796875 0.175781 2.953125 -0.1875 C 2.117188 -0.5625 1.429688 -1.078125 0.890625 -1.734375 C 0.359375 -2.398438 0.00390625 -3.1875 -0.171875 -4.09375 C -0.359375 -5.007812 -0.320312 -6.03125 -0.0625 -7.15625 C 0.164062 -8.238281 0.539062 -9.238281 1.0625 -10.15625 C 1.59375 -11.070312 2.242188 -11.863281 3.015625 -12.53125 C 3.796875 -13.207031 4.679688 -13.734375 5.671875 -14.109375 C 6.660156 -14.484375 7.707031 -14.671875 8.8125 -14.671875 C 10.03125 -14.671875 11.050781 -14.460938 11.875 -14.046875 C 12.695312 -13.640625 13.335938 -13.078125 13.796875 -12.359375 C 14.253906 -11.640625 14.519531 -10.773438 14.59375 -9.765625 C 14.664062 -8.765625 14.578125 -7.648438 14.328125 -6.421875 Z M 12.46875 -8.234375 C 12.570312 -9.796875 12.25 -10.960938 11.5 -11.734375 C 10.757812 -12.503906 9.726562 -12.890625 8.40625 -12.890625 C 7.726562 -12.890625 7.078125 -12.78125 6.453125 -12.5625 C 5.835938 -12.34375 5.269531 -12.023438 4.75 -11.609375 C 4.226562 -11.203125 3.753906 -10.707031 3.328125 -10.125 C 2.910156 -9.550781 2.59375 -8.921875 2.375 -8.234375 Z M 12.46875 -8.234375 "/></g></g><g transform="translate(651.952121, 415.349999)"><g><path d="M 14.640625 -12.3125 C 13.953125 -12.695312 13.082031 -12.890625 12.03125 -12.890625 C 11.164062 -12.890625 10.359375 -12.703125 9.609375 -12.328125 C 8.867188 -11.960938 8.195312 -11.476562 7.59375 -10.875 C 7 -10.28125 6.488281 -9.59375 6.0625 -8.8125 C 5.644531 -8.039062 5.359375 -7.242188 5.203125 -6.421875 L 4.21875 -1.796875 L 7.453125 -1.796875 L 7.09375 0 L -1.5 0 L -1.140625 -1.796875 L 2.109375 -1.796875 L 4.390625 -12.53125 L 1.140625 -12.53125 L 1.5 -14.328125 L 6.859375 -14.328125 L 6.109375 -10.734375 C 7.640625 -13.359375 9.75 -14.671875 12.4375 -14.671875 C 13.175781 -14.671875 13.800781 -14.625 14.3125 -14.53125 C 14.832031 -14.4375 15.289062 -14.273438 15.6875 -14.046875 Z M 14.640625 -12.3125 "/></g></g><g transform="translate(669.147921, 415.349999)"><g><path d="M 10.734375 -17.203125 L 7.875 -17.203125 L 8.46875 -20.078125 L 11.328125 -20.078125 Z M 9.953125 0 L 1.359375 0 L 1.734375 -1.796875 L 4.984375 -1.796875 L 7.25 -12.53125 L 4 -12.53125 L 4.390625 -14.328125 L 9.734375 -14.328125 L 7.09375 -1.796875 L 10.34375 -1.796875 Z M 9.953125 0 "/></g></g><g transform="translate(686.343721, 415.349999)"><g><path d="M -0.71875 -3.875 C -0.539062 -4.78125 -0.160156 -5.535156 0.421875 -6.140625 C 1.003906 -6.753906 1.695312 -7.238281 2.5 -7.59375 C 3.3125 -7.945312 4.207031 -8.203125 5.1875 -8.359375 C 6.175781 -8.515625 7.164062 -8.59375 8.15625 -8.59375 C 8.53125 -8.59375 8.863281 -8.585938 9.15625 -8.578125 C 9.457031 -8.566406 9.742188 -8.550781 10.015625 -8.53125 C 10.285156 -8.507812 10.550781 -8.484375 10.8125 -8.453125 C 11.082031 -8.421875 11.382812 -8.390625 11.71875 -8.359375 L 11.9375 -9.375 C 12.09375 -10.070312 12.0625 -10.644531 11.84375 -11.09375 C 11.632812 -11.550781 11.332031 -11.910156 10.9375 -12.171875 C 10.550781 -12.429688 10.128906 -12.613281 9.671875 -12.71875 C 9.210938 -12.832031 8.8125 -12.890625 8.46875 -12.890625 C 7.394531 -12.890625 6.378906 -12.742188 5.421875 -12.453125 C 4.472656 -12.171875 3.554688 -11.789062 2.671875 -11.3125 L 2.046875 -12.890625 C 3.023438 -13.410156 4.085938 -13.835938 5.234375 -14.171875 C 6.390625 -14.503906 7.609375 -14.671875 8.890625 -14.671875 C 9.660156 -14.671875 10.40625 -14.570312 11.125 -14.375 C 11.84375 -14.175781 12.453125 -13.867188 12.953125 -13.453125 C 13.453125 -13.035156 13.804688 -12.488281 14.015625 -11.8125 C 14.222656 -11.132812 14.234375 -10.320312 14.046875 -9.375 L 12.0625 0 L 9.953125 0 L 10.453125 -2.40625 C 9.972656 -1.9375 9.460938 -1.523438 8.921875 -1.171875 C 8.390625 -0.828125 7.84375 -0.546875 7.28125 -0.328125 C 6.726562 -0.109375 6.175781 0.0546875 5.625 0.171875 C 5.082031 0.296875 4.582031 0.359375 4.125 0.359375 C 2.238281 0.359375 0.882812 -0.00390625 0.0625 -0.734375 C -0.757812 -1.460938 -1.019531 -2.507812 -0.71875 -3.875 Z M 4.5 -1.453125 C 5.382812 -1.453125 6.207031 -1.582031 6.96875 -1.84375 C 7.738281 -2.101562 8.40625 -2.425781 8.96875 -2.8125 C 9.539062 -3.207031 10.007812 -3.625 10.375 -4.0625 C 10.75 -4.5 10.976562 -4.898438 11.0625 -5.265625 L 11.328125 -6.609375 C 10.671875 -6.710938 10.023438 -6.769531 9.390625 -6.78125 C 8.753906 -6.789062 8.207031 -6.796875 7.75 -6.796875 C 6.988281 -6.796875 6.242188 -6.742188 5.515625 -6.640625 C 4.796875 -6.535156 4.148438 -6.367188 3.578125 -6.140625 C 3.015625 -5.910156 2.53125 -5.609375 2.125 -5.234375 C 1.726562 -4.867188 1.484375 -4.414062 1.390625 -3.875 C 1.242188 -3.269531 1.410156 -2.710938 1.890625 -2.203125 C 2.367188 -1.703125 3.238281 -1.453125 4.5 -1.453125 Z M 4.5 -1.453125 "/></g></g><g transform="translate(703.539521, 415.349999)"><g/></g><g transform="translate(720.735321, 415.349999)"><g><path d="M 13.984375 -5.734375 C 13.578125 -3.816406 12.65625 -2.378906 11.21875 -1.421875 C 9.789062 -0.472656 7.929688 0 5.640625 0 L -0.75 0 L 3.484375 -20.078125 L 9.546875 -20.078125 C 10.378906 -20.078125 11.1875 -20.003906 11.96875 -19.859375 C 12.75 -19.722656 13.414062 -19.460938 13.96875 -19.078125 C 14.53125 -18.703125 14.941406 -18.175781 15.203125 -17.5 C 15.460938 -16.832031 15.476562 -15.957031 15.25 -14.875 C 14.800781 -12.789062 13.457031 -11.367188 11.21875 -10.609375 C 13.59375 -9.828125 14.515625 -8.203125 13.984375 -5.734375 Z M 13.140625 -14.875 C 13.273438 -15.582031 13.242188 -16.160156 13.046875 -16.609375 C 12.847656 -17.054688 12.546875 -17.398438 12.140625 -17.640625 C 11.734375 -17.890625 11.257812 -18.054688 10.71875 -18.140625 C 10.1875 -18.222656 9.671875 -18.265625 9.171875 -18.265625 L 5.234375 -18.265625 L 3.78125 -11.453125 L 7.71875 -11.453125 C 8.28125 -11.453125 8.851562 -11.492188 9.4375 -11.578125 C 10.019531 -11.671875 10.554688 -11.84375 11.046875 -12.09375 C 11.535156 -12.34375 11.96875 -12.6875 12.34375 -13.125 C 12.726562 -13.570312 12.992188 -14.15625 13.140625 -14.875 Z M 11.875 -5.734375 C 12.164062 -7.117188 11.929688 -8.125 11.171875 -8.75 C 10.421875 -9.382812 9.257812 -9.703125 7.6875 -9.703125 L 3.40625 -9.703125 L 1.734375 -1.796875 L 6.015625 -1.796875 C 7.585938 -1.796875 8.882812 -2.125 9.90625 -2.78125 C 10.9375 -3.445312 11.59375 -4.429688 11.875 -5.734375 Z M 11.875 -5.734375 "/></g></g><g transform="translate(737.931121, 415.349999)"><g><path d="M -0.71875 -3.875 C -0.539062 -4.78125 -0.160156 -5.535156 0.421875 -6.140625 C 1.003906 -6.753906 1.695312 -7.238281 2.5 -7.59375 C 3.3125 -7.945312 4.207031 -8.203125 5.1875 -8.359375 C 6.175781 -8.515625 7.164062 -8.59375 8.15625 -8.59375 C 8.53125 -8.59375 8.863281 -8.585938 9.15625 -8.578125 C 9.457031 -8.566406 9.742188 -8.550781 10.015625 -8.53125 C 10.285156 -8.507812 10.550781 -8.484375 10.8125 -8.453125 C 11.082031 -8.421875 11.382812 -8.390625 11.71875 -8.359375 L 11.9375 -9.375 C 12.09375 -10.070312 12.0625 -10.644531 11.84375 -11.09375 C 11.632812 -11.550781 11.332031 -11.910156 10.9375 -12.171875 C 10.550781 -12.429688 10.128906 -12.613281 9.671875 -12.71875 C 9.210938 -12.832031 8.8125 -12.890625 8.46875 -12.890625 C 7.394531 -12.890625 6.378906 -12.742188 5.421875 -12.453125 C 4.472656 -12.171875 3.554688 -11.789062 2.671875 -11.3125 L 2.046875 -12.890625 C 3.023438 -13.410156 4.085938 -13.835938 5.234375 -14.171875 C 6.390625 -14.503906 7.609375 -14.671875 8.890625 -14.671875 C 9.660156 -14.671875 10.40625 -14.570312 11.125 -14.375 C 11.84375 -14.175781 12.453125 -13.867188 12.953125 -13.453125 C 13.453125 -13.035156 13.804688 -12.488281 14.015625 -11.8125 C 14.222656 -11.132812 14.234375 -10.320312 14.046875 -9.375 L 12.0625 0 L 9.953125 0 L 10.453125 -2.40625 C 9.972656 -1.9375 9.460938 -1.523438 8.921875 -1.171875 C 8.390625 -0.828125 7.84375 -0.546875 7.28125 -0.328125 C 6.726562 -0.109375 6.175781 0.0546875 5.625 0.171875 C 5.082031 0.296875 4.582031 0.359375 4.125 0.359375 C 2.238281 0.359375 0.882812 -0.00390625 0.0625 -0.734375 C -0.757812 -1.460938 -1.019531 -2.507812 -0.71875 -3.875 Z M 4.5 -1.453125 C 5.382812 -1.453125 6.207031 -1.582031 6.96875 -1.84375 C 7.738281 -2.101562 8.40625 -2.425781 8.96875 -2.8125 C 9.539062 -3.207031 10.007812 -3.625 10.375 -4.0625 C 10.75 -4.5 10.976562 -4.898438 11.0625 -5.265625 L 11.328125 -6.609375 C 10.671875 -6.710938 10.023438 -6.769531 9.390625 -6.78125 C 8.753906 -6.789062 8.207031 -6.796875 7.75 -6.796875 C 6.988281 -6.796875 6.242188 -6.742188 5.515625 -6.640625 C 4.796875 -6.535156 4.148438 -6.367188 3.578125 -6.140625 C 3.015625 -5.910156 2.53125 -5.609375 2.125 -5.234375 C 1.726562 -4.867188 1.484375 -4.414062 1.390625 -3.875 C 1.242188 -3.269531 1.410156 -2.710938 1.890625 -2.203125 C 2.367188 -1.703125 3.238281 -1.453125 4.5 -1.453125 Z M 4.5 -1.453125 "/></g></g><g transform="translate(755.126921, 415.349999)"><g><path d="M 9.953125 0 L 1.359375 0 L 1.734375 -1.796875 L 4.984375 -1.796875 L 8.46875 -18.265625 L 5.234375 -18.265625 L 5.609375 -20.078125 L 10.96875 -20.078125 L 7.09375 -1.796875 L 10.34375 -1.796875 Z M 9.953125 0 "/></g></g><g transform="translate(772.322721, 415.349999)"><g><path d="M 12.0625 0 L 9.953125 0 L 10.21875 -1.328125 C 9.5 -0.773438 8.742188 -0.351562 7.953125 -0.0625 C 7.160156 0.21875 6.390625 0.359375 5.640625 0.359375 C 4.503906 0.359375 3.523438 0.175781 2.703125 -0.1875 C 1.890625 -0.5625 1.238281 -1.078125 0.75 -1.734375 C 0.269531 -2.398438 -0.0351562 -3.191406 -0.171875 -4.109375 C -0.316406 -5.035156 -0.269531 -6.050781 -0.03125 -7.15625 C 0.195312 -8.238281 0.578125 -9.242188 1.109375 -10.171875 C 1.648438 -11.097656 2.296875 -11.890625 3.046875 -12.546875 C 3.804688 -13.210938 4.679688 -13.734375 5.671875 -14.109375 C 6.660156 -14.484375 7.71875 -14.671875 8.84375 -14.671875 C 9.601562 -14.671875 10.3125 -14.535156 10.96875 -14.265625 C 11.632812 -13.992188 12.207031 -13.585938 12.6875 -13.046875 L 13.828125 -18.265625 L 10.96875 -18.265625 L 11.328125 -20.078125 L 16.3125 -20.078125 Z M 12.296875 -11 C 11.804688 -11.664062 11.234375 -12.144531 10.578125 -12.4375 C 9.929688 -12.738281 9.207031 -12.890625 8.40625 -12.890625 C 7.570312 -12.890625 6.800781 -12.738281 6.09375 -12.4375 C 5.394531 -12.144531 4.773438 -11.738281 4.234375 -11.21875 C 3.703125 -10.707031 3.253906 -10.101562 2.890625 -9.40625 C 2.523438 -8.71875 2.253906 -7.96875 2.078125 -7.15625 C 1.890625 -6.332031 1.832031 -5.570312 1.90625 -4.875 C 1.976562 -4.1875 2.175781 -3.585938 2.5 -3.078125 C 2.832031 -2.566406 3.285156 -2.160156 3.859375 -1.859375 C 4.429688 -1.566406 5.140625 -1.421875 5.984375 -1.421875 C 7.597656 -1.421875 9.148438 -2.0625 10.640625 -3.34375 Z M 12.296875 -11 "/></g></g><g transform="translate(789.518521, 415.349999)"><g><path d="M 2.265625 -14.328125 L 4.390625 -14.328125 L 2.484375 -5.46875 C 2.234375 -4.1875 2.304688 -3.195312 2.703125 -2.5 C 3.109375 -1.800781 3.929688 -1.453125 5.171875 -1.453125 C 5.953125 -1.453125 6.695312 -1.628906 7.40625 -1.984375 C 8.113281 -2.335938 8.753906 -2.816406 9.328125 -3.421875 C 9.898438 -4.023438 10.375 -4.710938 10.75 -5.484375 C 11.132812 -6.253906 11.425781 -7.0625 11.625 -7.90625 L 12.984375 -14.328125 L 15.09375 -14.328125 L 12.0625 0 L 9.953125 0 L 10.703125 -3.578125 C 9.140625 -0.953125 7.050781 0.359375 4.4375 0.359375 C 0.914062 0.359375 -0.429688 -1.582031 0.390625 -5.46875 Z M 2.265625 -14.328125 "/></g></g><g transform="translate(806.714321, 415.349999)"><g><path d="M 12.859375 -2.734375 C 12.035156 -1.796875 11.039062 -1.046875 9.875 -0.484375 C 8.707031 0.078125 7.398438 0.359375 5.953125 0.359375 C 4.847656 0.359375 3.867188 0.175781 3.015625 -0.1875 C 2.160156 -0.5625 1.46875 -1.078125 0.9375 -1.734375 C 0.414062 -2.398438 0.0664062 -3.1875 -0.109375 -4.09375 C -0.296875 -5.007812 -0.257812 -6.03125 0 -7.15625 C 0.238281 -8.238281 0.625 -9.242188 1.15625 -10.171875 C 1.6875 -11.097656 2.332031 -11.890625 3.09375 -12.546875 C 3.863281 -13.210938 4.742188 -13.734375 5.734375 -14.109375 C 6.722656 -14.484375 7.773438 -14.671875 8.890625 -14.671875 C 9.328125 -14.671875 9.757812 -14.617188 10.1875 -14.515625 C 10.625 -14.410156 11.023438 -14.253906 11.390625 -14.046875 C 11.753906 -13.835938 12.066406 -13.585938 12.328125 -13.296875 C 12.585938 -13.003906 12.765625 -12.660156 12.859375 -12.265625 L 13.296875 -14.328125 L 15.1875 -14.328125 L 13.984375 -8.59375 L 12.09375 -8.59375 C 12.226562 -9.226562 12.234375 -9.804688 12.109375 -10.328125 C 11.992188 -10.859375 11.773438 -11.3125 11.453125 -11.6875 C 11.128906 -12.070312 10.707031 -12.367188 10.1875 -12.578125 C 9.664062 -12.785156 9.09375 -12.890625 8.46875 -12.890625 C 7.613281 -12.890625 6.832031 -12.738281 6.125 -12.4375 C 5.425781 -12.144531 4.804688 -11.738281 4.265625 -11.21875 C 3.722656 -10.707031 3.269531 -10.101562 2.90625 -9.40625 C 2.550781 -8.71875 2.285156 -7.96875 2.109375 -7.15625 C 1.921875 -6.332031 1.878906 -5.570312 1.984375 -4.875 C 2.085938 -4.1875 2.320312 -3.59375 2.6875 -3.09375 C 3.0625 -2.59375 3.550781 -2.191406 4.15625 -1.890625 C 4.769531 -1.597656 5.5 -1.453125 6.34375 -1.453125 C 7.40625 -1.453125 8.394531 -1.660156 9.3125 -2.078125 C 10.238281 -2.492188 11 -3.050781 11.59375 -3.75 Z M 12.859375 -2.734375 "/></g></g><g transform="translate(823.910121, 415.349999)"><g><path d="M 12.859375 -2.734375 C 12.035156 -1.796875 11.039062 -1.046875 9.875 -0.484375 C 8.707031 0.078125 7.398438 0.359375 5.953125 0.359375 C 4.847656 0.359375 3.867188 0.175781 3.015625 -0.1875 C 2.160156 -0.5625 1.46875 -1.078125 0.9375 -1.734375 C 0.414062 -2.398438 0.0664062 -3.1875 -0.109375 -4.09375 C -0.296875 -5.007812 -0.257812 -6.03125 0 -7.15625 C 0.238281 -8.238281 0.625 -9.242188 1.15625 -10.171875 C 1.6875 -11.097656 2.332031 -11.890625 3.09375 -12.546875 C 3.863281 -13.210938 4.742188 -13.734375 5.734375 -14.109375 C 6.722656 -14.484375 7.773438 -14.671875 8.890625 -14.671875 C 9.328125 -14.671875 9.757812 -14.617188 10.1875 -14.515625 C 10.625 -14.410156 11.023438 -14.253906 11.390625 -14.046875 C 11.753906 -13.835938 12.066406 -13.585938 12.328125 -13.296875 C 12.585938 -13.003906 12.765625 -12.660156 12.859375 -12.265625 L 13.296875 -14.328125 L 15.1875 -14.328125 L 13.984375 -8.59375 L 12.09375 -8.59375 C 12.226562 -9.226562 12.234375 -9.804688 12.109375 -10.328125 C 11.992188 -10.859375 11.773438 -11.3125 11.453125 -11.6875 C 11.128906 -12.070312 10.707031 -12.367188 10.1875 -12.578125 C 9.664062 -12.785156 9.09375 -12.890625 8.46875 -12.890625 C 7.613281 -12.890625 6.832031 -12.738281 6.125 -12.4375 C 5.425781 -12.144531 4.804688 -11.738281 4.265625 -11.21875 C 3.722656 -10.707031 3.269531 -10.101562 2.90625 -9.40625 C 2.550781 -8.71875 2.285156 -7.96875 2.109375 -7.15625 C 1.921875 -6.332031 1.878906 -5.570312 1.984375 -4.875 C 2.085938 -4.1875 2.320312 -3.59375 2.6875 -3.09375 C 3.0625 -2.59375 3.550781 -2.191406 4.15625 -1.890625 C 4.769531 -1.597656 5.5 -1.453125 6.34375 -1.453125 C 7.40625 -1.453125 8.394531 -1.660156 9.3125 -2.078125 C 10.238281 -2.492188 11 -3.050781 11.59375 -3.75 Z M 12.859375 -2.734375 "/></g></g><g transform="translate(841.105921, 415.349999)"><g><path d="M 10.734375 -17.203125 L 7.875 -17.203125 L 8.46875 -20.078125 L 11.328125 -20.078125 Z M 9.953125 0 L 1.359375 0 L 1.734375 -1.796875 L 4.984375 -1.796875 L 7.25 -12.53125 L 4 -12.53125 L 4.390625 -14.328125 L 9.734375 -14.328125 L 7.09375 -1.796875 L 10.34375 -1.796875 Z M 9.953125 0 "/></g></g></g></svg>